<svg xmlns="http://www.w3.org/2000/svg" viewBox="0 0 50.64 17.47"><title>자산 1</title><g id="레이어_2" data-name="레이어 2"><g id="레이어_1-2" data-name="레이어 1"><path d="M0,12.24H3.5c0,1.35.68,1.92,1.76,1.92a1.48,1.48,0,0,0,1.68-1.49C6.94,9.89.36,9.55.36,4.44.36,1.87,2.16,0,5.26,0s5,1.85,5,4.94H6.72c0-1.1-.5-1.65-1.49-1.65s-1.41.48-1.41,1.25c0,2.64,6.67,2.8,6.67,8.16,0,2.76-2,4.77-5.28,4.77S0,15.63,0,12.24Z"/><path d="M26.74.34v16.8H23.4V13c.1-2,.17-4.08.27-6.12l-.13,0L22,11.26l-.84,2.28H17.83L17,11.26,15.48,6.84l-.12,0c.07,2,.17,4.08.24,6.12v4.13H12.29V.34h3.43L18.36,6.7c.34.84.91,2.3,1.1,2.93h.1c.19-.63.77-2.09,1.1-2.93L23.3.34Z"/><path d="M38.66,3.58H35.38V17.14H31.87V3.58H28.58V.34H38.66Z"/><path d="M40,12V5.47C40,1.92,42,0,45.24,0s5.23,1.92,5.35,5.47H47.18c-.09-1.53-.67-2.16-2-2.16-1,0-1.64.67-1.64,2.16V12c0,1.44.58,2.11,1.64,2.11,1.32,0,1.92-.62,2-2.11h3.41c-.07,3.53-2,5.43-5.42,5.43S40,15.53,40,12Z"/></g></g></svg>